# xmcd
# Track frame offsets:
# 182
# 12200
# 26435
# 38547
# 51785
# 63530
# 74200
# 91037
# 103690
# 113702
# 126190
# 138070
# 150362
# 167777
#
# Disc length: 2366 seconds
# Revision: 0
# Processed by: cddbd v1.5.1PL0 Copyright (c) Steve Scherf et al.
# Submitted via: VisiTrax 2.9.5.181 - For more info visit www.synapsa.com
#
DISCID=ae093c0e
DTITLE=Hank Williams Jr. - The Country Store Collection
DYEAR=1975
DGENRE=
TTITLE0=Long gone lonesome blues
TTITLE1=Standing in the shadows
TTITLE2=Cajun baby
TTITLE3=Rainin' in my heart
TTITLE4=Send you the pillow you dream on
TTITLE5=Ain't that a shame
TTITLE6=Losing you
TTITLE7=Wolverton mountain
TTITLE8=Walk on by
TTITLE9=Ring of fire
TTITLE10=It's over but the crying
TTITLE11=I'd rather be gone
TTITLE12=All for the love of sunshine
TTITLE13=I walk the line
EXTD=
EXTT0=
EXTT1=
EXTT2=
EXTT3=
EXTT4=
EXTT5=
EXTT6=
EXTT7=
EXTT8=
EXTT9=
EXTT10=
EXTT11=
EXTT12=
EXTT13=
PLAYORDER=
